<svg xmlns="http://www.w3.org/2000/svg" xml:space="preserve" viewBox="0 0 512 512">
  <circle cx="256" cy="256" r="232.7" style="opacity:.2;fill:#e05d44"/>
  <path d="M256 512C114.8 512 0 397.2 0 256S114.8 0 256 0s256 114.8 256 256-114.8 256-256 256m0-465.4c-115.5 0-209.5 94-209.5 209.5s94 209.5 209.5 209.5 209.5-94 209.5-209.5c0-115.6-94-209.5-209.5-209.5" style="fill:#e05d44"/>
  <g style="fill:none;stroke:#e05d44;stroke-width:20;stroke-linecap:round;stroke-linejoin:round">
    <!-- Concentric radar circles -->
    <circle cx="256" cy="256" r="140" stroke-dasharray="12, 16" />
    <circle cx="256" cy="256" r="70" />
    <!-- Crosshairs -->
    <line x1="256" y1="90" x2="256" y2="422"/>
    <line x1="90" y1="256" x2="422" y2="256"/>
    <!-- Sweeper wedge -->
    <path d="M256 256 L355 157 A140 140 0 0 1 396 256 Z" style="fill:#e05d44;fill-opacity:0.25;stroke:none"/>
    <!-- Target blips -->
    <circle cx="330" cy="200" r="12" style="fill:#e05d44;stroke:none" />
    <circle cx="180" cy="300" r="10" style="fill:#e05d44;stroke:none;opacity:0.5" />
  </g>
</svg>
